<svg xmlns="http://www.w3.org/2000/svg" viewBox="0 0 512 512" role="img" aria-labelledby="title">
  <title id="title">WindMill Foods</title>
  <g fill="none" stroke-linecap="round" stroke-linejoin="round">
    <path d="M87 267c56-20 106-21 167 1 58 20 111 17 171-4" stroke="#F4D35E" stroke-width="13"/>
    <path d="M85 285c58-12 109-7 169 13 61 19 113 12 174-5" stroke="#204E5F" stroke-width="9"/>
    <path d="M191 240h130l-18-128h-94z" fill="#204E5F" stroke="#204E5F" stroke-width="8"/>
    <path d="m201 112 55-34 55 34" fill="#204E5F" stroke="#204E5F" stroke-width="11"/>
    <path d="M242 241v-53a14 14 0 0 1 28 0v53M247 145h18" stroke="#FFFFFF" stroke-width="8"/>
    <path d="m256 126-66-77-18 17 77 67m14-13 67-76 18 17-78 67m-15 9-70 76-17-17 77-68m18 14 68 75 18-18-78-66" fill="#FFFFFF" stroke="#204E5F" stroke-width="8"/>
    <path d="m177 59 76 70m88-70-76 70m-82 72 72-72m83 72-73-72" stroke="#204E5F" stroke-width="4" stroke-dasharray="8 7"/>
    <circle cx="256" cy="130" r="13" fill="#204E5F" stroke="#FFFFFF" stroke-width="4"/>
    <path d="M145 248c-23-29-31-58-23-95m-9 96c-24-19-36-41-39-67m34 34c-19-8-31-20-40-37m39 20c-2-22 1-39 13-57m-2 43c-10-21-11-40-5-59m17 70c-2-23 3-43 15-58m-7 93c10-31 26-51 48-64" stroke="#D1A638" stroke-width="6"/>
    <path d="M367 248c23-29 31-58 23-95m9 96c24-19 36-41 39-67m-34 34c19-8 31-20 40-37m-39 20c2-22-1-39-13-57m2 43c10-21 11-40 5-59m-17 70c2-23-3-43-15-58m7 93c-10-31-26-51-48-64" stroke="#D1A638" stroke-width="6"/>
  </g>
  <text x="256" y="386" fill="#204E5F" font-family="Georgia, 'Times New Roman', serif" font-size="73" font-weight="700" letter-spacing="-4" text-anchor="middle">WindMill</text>
  <path d="M111 405h87m116 0h87" stroke="#F4D35E" stroke-width="7" stroke-linecap="round"/>
  <text x="256" y="419" fill="#204E5F" font-family="Arial, Helvetica, sans-serif" font-size="34" font-weight="700" letter-spacing="9" text-anchor="middle">FOODS</text>
</svg>
