<svg xmlns="http://www.w3.org/2000/svg" width="1440" height="900" viewBox="0 0 1440 900" fill="none">
  <defs>
    <radialGradient id="paperGlow" cx="0" cy="0" r="1" gradientUnits="userSpaceOnUse" gradientTransform="translate(1052 466) rotate(132) scale(525 690)">
      <stop stop-color="#42B99A" stop-opacity=".055"/>
      <stop offset="1" stop-color="#42B99A" stop-opacity="0"/>
    </radialGradient>
    <pattern id="microDots" width="18" height="18" patternUnits="userSpaceOnUse">
      <circle cx="1" cy="1" r=".7" fill="#176951" fill-opacity=".045"/>
    </pattern>
  </defs>

  <rect width="1440" height="900" fill="url(#paperGlow)"/>
  <rect width="1440" height="900" fill="url(#microDots)"/>

  <!-- Courbes topographiques et route de saison -->
  <g stroke="#176951" stroke-width="1" stroke-opacity=".055">
    <path d="M-55 72C72 17 180 22 279 76C382 132 480 129 584 69C692 8 812 14 912 81C1012 148 1122 149 1494 5"/>
    <path d="M-62 91C68 38 174 43 273 96C376 151 484 151 590 91C696 31 807 35 904 101C1002 167 1113 171 1497 28"/>
    <path d="M-70 111C59 59 168 63 266 116C373 174 489 173 597 114C701 57 801 58 897 121C996 186 1106 193 1502 52"/>
    <path d="M-77 132C55 81 163 83 260 136C370 196 494 195 603 137C706 82 796 81 890 141C990 206 1099 215 1506 77"/>
  </g>
  <path d="M-40 392C102 306 222 350 333 295C445 239 518 183 628 228C742 275 796 337 917 292C1032 249 1101 169 1217 189C1329 209 1386 272 1491 235" stroke="#176951" stroke-width="1.5" stroke-opacity=".1" stroke-dasharray="3 10"/>
  <g fill="#F8FBF9" stroke="#176951" stroke-opacity=".115">
    <circle cx="122" cy="337" r="8"/>
    <circle cx="333" cy="295" r="8"/>
    <circle cx="628" cy="228" r="8"/>
    <circle cx="917" cy="292" r="8"/>
    <circle cx="1217" cy="189" r="8"/>
  </g>
  <g fill="#F2C94C" fill-opacity=".16" stroke="#A87900" stroke-opacity=".14">
    <circle cx="333" cy="295" r="3.5"/>
    <circle cx="917" cy="292" r="3.5"/>
    <circle cx="1217" cy="189" r="3.5"/>
  </g>

  <!-- Poste de contrôle de course -->
  <g transform="translate(64 92)" stroke="#176951" stroke-linecap="round" stroke-linejoin="round">
    <rect width="480" height="238" rx="24" fill="#FFFFFF" fill-opacity=".16" stroke-opacity=".105" stroke-width="1.4"/>
    <path d="M0 48h480M302 48v190" stroke-opacity=".075"/>
    <path d="M28 23h112m18 0h48" stroke-opacity=".12" stroke-width="3"/>
    <circle cx="446" cy="24" r="6" stroke-opacity=".13"/>
    <circle cx="424" cy="24" r="6" stroke-opacity=".08"/>

    <g transform="translate(34 77)" stroke-opacity=".115">
      <circle cx="72" cy="72" r="60" stroke-width="1.4"/>
      <circle cx="72" cy="72" r="48" stroke-width="5" stroke-dasharray="52 12"/>
      <path d="M72 72 105 42" stroke-width="2"/>
      <circle cx="72" cy="72" r="6" fill="#176951" fill-opacity=".08"/>
      <path d="M33 145h78m-62 15h46" stroke-width="2.5"/>
    </g>

    <g transform="translate(174 76)" stroke-opacity=".105">
      <path d="M0 104h104M0 68h104M0 32h104" stroke-width=".8" stroke-dasharray="2 6"/>
      <path d="m2 97 18-21 19 8 17-35 18 13 28-42" stroke-width="2"/>
      <path d="M2 126h74m-74 17h48" stroke-width="2.5"/>
      <circle cx="39" cy="84" r="3" fill="#F2C94C" fill-opacity=".18" stroke="#A87900"/>
      <circle cx="102" cy="20" r="3" fill="#F2C94C" fill-opacity=".18" stroke="#A87900"/>
    </g>

    <g transform="translate(330 78)" stroke-opacity=".105">
      <path d="M0 120h116"/>
      <path d="M13 120V82m22 38V55m22 65V71m22 49V31m22 89V46" stroke-width="11"/>
      <path d="M0 148h80m-80 18h104" stroke-width="2.5"/>
    </g>
  </g>

  <!-- Feuille de stratégie et planification -->
  <g transform="translate(82 472) rotate(-1.6 254 155)" stroke="#176951" stroke-linecap="round" stroke-linejoin="round">
    <rect x="18" y="14" width="500" height="306" rx="20" fill="#FFFFFF" fill-opacity=".18" stroke-opacity=".105" stroke-width="1.4"/>
    <path d="M54 58h214m-214 22h122M400 52h78" stroke-opacity=".115" stroke-width="3"/>
    <path d="M54 112h424M54 161h424M54 210h424M54 259h424M163 112v147M283 112v147M392 112v147" stroke-opacity=".07"/>
    <g stroke-opacity=".12" stroke-width="1.6">
      <path d="m70 133 6 6 12-14m-18 57 6 6 12-14m-18 57 6 6 12-14"/>
      <path d="M102 133h44m-44 14h30M102 182h44m-44 14h25M102 231h44m-44 14h35" stroke-width="2.4"/>
      <path d="m180 239 23-25 27 10 26-48 27 34 30-18 31 32 34-69 33 42 43-38" stroke-width="2"/>
      <path d="M180 241h274" stroke-width=".9"/>
      <circle cx="256" cy="176" r="4" fill="#F2C94C" fill-opacity=".18" stroke="#A87900"/>
      <circle cx="378" cy="155" r="4" fill="#F2C94C" fill-opacity=".18" stroke="#A87900"/>
    </g>
    <path d="M54 286h170m18 0h78" stroke-opacity=".09" stroke-width="3"/>
  </g>

  <!-- Vélo de route : planche technique -->
  <g stroke="#176951" stroke-linecap="round" stroke-linejoin="round">
    <g stroke-opacity=".11">
      <circle cx="866" cy="592" r="151" stroke-width="2.2"/>
      <circle cx="866" cy="592" r="143" stroke-width="1"/>
      <circle cx="1212" cy="592" r="151" stroke-width="2.2"/>
      <circle cx="1212" cy="592" r="143" stroke-width="1"/>
      <circle cx="866" cy="592" r="8" stroke-width="1.5"/>
      <circle cx="1212" cy="592" r="8" stroke-width="1.5"/>
    </g>

    <!-- Rayons -->
    <g stroke-opacity=".075" stroke-width=".8">
      <path d="M866 449v286M723 592h286M765 491l202 202M765 693l202-202M811 459l110 266M732 537l268 110M732 647l268-110M811 725l110-266"/>
      <path d="M1212 449v286M1069 592h286M1111 491l202 202M1111 693l202-202M1157 459l110 266M1078 537l268 110M1078 647l268-110M1157 725l110-266"/>
    </g>

    <!-- Cadre, fourche et cockpit -->
    <g stroke-opacity=".145">
      <path d="M866 592 1025 592 972 400 866 592Zm106-192 160 45-107 147 107-147 80 147" stroke-width="4"/>
      <path d="m1129 443 22 58 61 91" stroke-width="3"/>
      <path d="m967 403 24-5 28-1M972 400l-14-55" stroke-width="3"/>
      <path d="M930 344h66c8 0 13 5 9 10l-12 8h-72" stroke-width="4"/>
      <path d="m1132 445 20-77 39-22" stroke-width="3"/>
      <path d="M1189 346h43c12 0 17 8 11 17l-12 17c-7 10-4 23 7 30" stroke-width="3"/>
      <path d="M1238 410c14-5 23 4 17 17l-8 17" stroke-width="2"/>
      <path d="M1150 368c22 6 44 8 66 5" stroke-width="1.3"/>
    </g>

    <!-- Transmission -->
    <g stroke-opacity=".13">
      <circle cx="1025" cy="592" r="29" stroke-width="2"/>
      <circle cx="1025" cy="592" r="19" stroke-width="1.2"/>
      <circle cx="866" cy="592" r="14" stroke-width="1.3"/>
      <path d="M866 578h159M866 606h159" stroke-width="1.3"/>
      <path d="m1025 592 30-30m-30 30-28 35m58-65 18-4m-76 69-19 3" stroke-width="2"/>
      <circle cx="1074" cy="558" r="4"/>
      <circle cx="978" cy="630" r="4"/>
      <path d="m855 604 14 25 18-7" stroke-width="1.5"/>
    </g>

    <!-- Détails du cadre -->
    <g stroke-opacity=".1">
      <path d="m1000 489 29-9 10 45-28 9-11-45Z" stroke-width="1.4"/>
      <path d="m1030 488 12 7m-37 9 31 8" stroke-width="1"/>
      <path d="M978 418c32 18 71 28 116 34M1137 460c-28 16-49 48-64 94" stroke-width=".9" stroke-dasharray="3 5"/>
      <path d="M1124 436c-3 10 0 18 9 24M963 392c6 8 14 12 25 11" stroke-width="1.2"/>
    </g>

    <!-- Cotes techniques -->
    <g stroke-opacity=".075" stroke-width="1">
      <path d="M866 777v40m346-40v40M866 805h346m-346 0 12-6m-12 6 12 6m334-6-12-6m12 6-12 6"/>
      <path d="M789 345h-42m42 390h-42M759 345v390m0-390-6 12m6-12 6 12m-6 378-6-12m6 12 6-12"/>
      <path d="M896 838h102m26 0h64m26 0h66" stroke-width="2.5"/>
      <path d="M773 404h70m-70 18h46" stroke-width="2.5"/>
    </g>
  </g>

  <!-- Profil d'étape et télémétrie basse -->
  <g transform="translate(646 742)" stroke="#176951" stroke-linecap="round" stroke-linejoin="round">
    <path d="M0 92h714" stroke-opacity=".095"/>
    <path d="m0 92 54-21 41 9 67-53 45 37 55-18 52 31 66-65 51 48 43-22 74 42 75-61 51 48 60-34" stroke-opacity=".13" stroke-width="2"/>
    <path d="M54 71v21m108-65v65m218-80v80m168-73v73m126-59v59" stroke-opacity=".065" stroke-dasharray="3 6"/>
    <g fill="#F8FBF9" stroke-opacity=".12">
      <circle cx="162" cy="27" r="5"/>
      <circle cx="380" cy="12" r="5"/>
      <circle cx="548" cy="19" r="5"/>
    </g>
    <g stroke-opacity=".08" stroke-width="2.5">
      <path d="M0 122h104m22 0h58M226 122h86m24 0h42M426 122h112m22 0h74"/>
    </g>
  </g>
</svg>
